<?xml version="1.0" encoding="utf-8"?>
<!-- Generator: Adobe Illustrator 28.0.0, SVG Export Plug-In . SVG Version: 6.00 Build 0)  -->
<svg version="1.2" baseProfile="tiny" id="Layer_1" xmlns="http://www.w3.org/2000/svg" xmlns:xlink="http://www.w3.org/1999/xlink"
	 x="0px" y="0px" viewBox="0 0 973 709.96" overflow="visible" xml:space="preserve">
<g>
	<path fill="#005C31" d="M774.21,594.57L351.77,707.76c-34.19,9.16-69.33-11.13-78.49-45.32L160.09,240
		c-8.09-30.18,9.82-61.2,40-69.29L622.53,57.52c34.19-9.16,69.33,11.13,78.49,45.32l113.19,422.44
		C822.3,555.46,804.39,586.48,774.21,594.57z"/>
	<path fill="#370001" d="M671.55,83.31c-4.15-15.51-17.3-26.19-32.32-27.97c-5.51-0.01-11.11,0.69-16.69,2.19L200.09,170.72
		c-30.18,8.09-48.09,39.11-40,69.29l113.19,422.44c1.06,3.94,2.47,7.68,4.17,11.23c8.45,14.47,25.79,22.12,42.75,17.57
		l442.11-118.46c20.81-5.57,33.15-26.96,27.58-47.77L671.55,83.31z"/>
	<path fill="#005C31" d="M647.64,79.76c-3.63-13.56-16.51-22.18-30.03-20.91L200.09,170.72c-30.18,8.09-48.09,39.11-40,69.29
		l111.87,417.52c5.85,11.94,19.5,18.47,32.82,14.9l441.97-118.43c14.4-3.86,22.95-18.66,19.09-33.07L647.64,79.76z"/>
</g>
<path fill="#370001" d="M815.35,549.36c1.32-7.78,1.04-15.96-1.13-24.08l-4.27-15.94c-7.27,2.08-14.84,4.04-22.7,5.88
	c-84.22,19.71-194.76,24.95-311.25,14.76c-92.46-8.09-179.53-25.11-251.29-48.81l12.25,45.72c69.55,20.62,150.48,35.49,235.55,42.93
	c39.91,3.49,79.2,5.22,117.11,5.22c76.66,0,147.7-7.06,206.74-20.88C802.89,552.64,809.2,551.03,815.35,549.36z"/>
<path fill="#B14A3B" d="M816.14,540.14c0.02-4.91-0.6-9.9-1.93-14.86l-6.51-24.3c-6.58,1.84-13.4,3.59-20.45,5.24
	c-84.22,19.71-194.76,24.95-311.25,14.76c-93.6-8.19-181.68-25.53-253.93-49.68l12.28,45.83c70.13,21.03,152.03,36.17,238.17,43.71
	c39.91,3.49,79.2,5.22,117.11,5.22c76.66,0,147.7-7.06,206.74-20.88C803.17,543.58,809.75,541.89,816.14,540.14z"/>
<path fill="#370001" d="M936.48,369.64c-22.52-20.86-55.08-40.49-96.78-58.34c-13.78-5.9-28.37-11.51-43.65-16.83l12.69,47.35
	c5.19,2.05,10.26,4.13,15.23,6.26c36.95,15.81,66.46,33.42,85.34,50.91c11.55,10.7,25.02,26.91,23.58,43.34
	s-17.52,30.05-30.75,38.58c-17.73,11.43-42.51,21.7-72.43,30.07l6.51,24.3c1.33,4.97,1.94,9.96,1.93,14.86
	c35.07-9.61,63.84-21.55,85.66-35.62c30.18-19.46,46.64-42.58,48.92-68.72S962.82,394.04,936.48,369.64z"/>
<path fill="#B14A3B" d="M914.48,359.64c-22.52-20.86-55.08-40.49-96.78-58.34c-13.78-5.9-28.37-11.51-43.65-16.83l12.69,47.35
	c5.19,2.05,10.26,4.13,15.23,6.26c36.95,15.81,66.46,33.42,85.34,50.91c11.55,10.7,25.02,26.91,23.58,43.34
	s-17.52,30.05-30.75,38.58c-17.73,11.43-42.51,21.7-72.43,30.07l6.51,24.3c1.33,4.97,1.94,9.96,1.93,14.86
	c35.07-9.61,63.84-21.55,85.66-35.62c30.18-19.46,46.64-42.58,48.92-68.72S940.82,384.04,914.48,359.64z"/>
<path fill="#370001" d="M149.04,446.4c-36.95-15.81-66.46-33.42-85.34-50.91c-11.55-10.7-25.02-26.91-23.58-43.34
	s17.52-30.05,30.75-38.58c14.46-9.32,33.62-17.87,56.42-25.25l-10.37-38.7c-27.04,8.59-49.75,18.73-67.72,30.32
	C19.02,299.4,2.56,322.52,0.27,348.66c-2.29,26.14,9.91,51.77,36.25,76.17c22.52,20.86,55.08,40.49,96.78,58.34
	c23.81,10.19,49.99,19.54,78.04,27.95l-12.28-45.83C181.4,459.39,164.66,453.08,149.04,446.4z"/>
<path fill="#B14A3B" d="M172.04,452.4c-36.95-15.81-66.46-33.42-85.34-50.91c-11.55-10.7-25.02-26.91-23.58-43.34
	s17.52-30.05,30.75-38.58c14.46-9.32,33.62-17.87,56.42-25.25l-10.37-38.7c-27.04,8.59-49.75,18.73-67.72,30.32
	c-30.18,19.46-46.64,42.58-48.92,68.72c-2.29,26.14,9.91,51.77,36.25,76.17c22.52,20.86,55.08,40.49,96.78,58.34
	c23.81,10.19,49.99,19.54,78.04,27.95l-12.28-45.83C204.4,465.39,187.66,459.08,172.04,452.4z"/>
<path fill="#FFD816" d="M277.02,281.92l52.17-13.98l83.92,161.66l1-0.27l-1.84-183.65l44.03-11.8l90.24,159.97l1-0.27l-8.15-181.96
	l52.17-13.98l0.61,256.82l-49.02,13.13l-87.04-148.71l-1,0.27l-1.19,172.35l-49.02,13.13L277.02,281.92z"/>
<polygon fill="#370001" points="838.99,30.64 867.87,101.39 920.69,140.08 867.87,178.77 838.99,249.52 810.1,178.77 757.28,140.08 
	810.1,101.39 "/>
<polygon fill="#370001" points="153.52,546.05 170.36,587.3 201.15,609.85 170.36,632.41 153.52,673.65 136.68,632.41 
	105.89,609.85 136.68,587.3 "/>
<polygon fill="#370001" points="734.71,2.69 744.26,26.09 761.74,38.9 744.26,51.7 734.71,75.11 725.15,51.7 707.67,38.9 
	725.15,26.09 "/>
<polygon fill="#FFD816" points="148.52,540.05 165.36,581.3 196.15,603.85 165.36,626.41 148.52,667.65 131.68,626.41 
	100.89,603.85 131.68,581.3 "/>
<polygon fill="#FFD816" points="831.99,23.64 860.87,94.39 913.69,133.08 860.87,171.77 831.99,242.52 803.1,171.77 750.28,133.08 
	803.1,94.39 "/>
<polygon fill="#FFD816" points="732.12,0 741.68,23.41 759.15,36.21 741.68,49.01 732.12,72.42 722.56,49.01 705.08,36.21 
	722.56,23.41 "/>
</svg>
